PathFileType	4	(X/Y/Z)	Patient4_TMGait_0pt3_03_left_20.trc.trc
DataRate	CameraRate	NumFrames	NumMarkers	Units	OrigDataRate	OrigDataStartFrame	OrigNumFrames
58.333333333333	58.333333333333	5	33	mm	58.333333333333	18	       141
Frame#	Time	Sacral			L.Shoulder			Chest			R.Shoulder			Neck			R.ASIS			L.ASIS			R.Thigh.Superior			R.Thigh.Lateral			R.Thigh.Inferior			R.Patella			L.Thigh.Superior			L.Thigh.Lateral			L.Thigh.Inferior			L.Patella			L.Shank.Superior			L.Shank.Lateral			L.Shank.Inferior			R.Shank.Superior			R.Shank.Lateral			R.Shank.Inferior			R.Heel			R.Midfoot.Superior			R.Midfoot.Lateral			R.Toe			L.Heel			L.Midfoot.Lateral			L.Midfoot.Superior			L.Toe			L.Elbow			L.Wrist			R.Elbow			R.Wrist			
		X1	Y1	Z1	X2	Y2	Z2	X3	Y3	Z3	X4	Y4	Z4	X5	Y5	Z5	X6	Y6	Z6	X7	Y7	Z7	X8	Y8	Z8	X9	Y9	Z9	X10	Y10	Z10	X11	Y11	Z11	X12	Y12	Z12	X13	Y13	Z13	X14	Y14	Z14	X15	Y15	Z15	X16	Y16	Z16	X17	Y17	Z17	X18	Y18	Z18	X19	Y19	Z19	X20	Y20	Z20	X21	Y21	Z21	X22	Y22	Z22	X23	Y23	Z23	X24	Y24	Z24	X25	Y25	Z25	X26	Y26	Z26	X27	Y27	Z27	X28	Y28	Z28	X29	Y29	Z29	X30	Y30	Z30	X31	Y31	Z31	X32	Y32	Z32	X33	Y33	Z33	

18	35.081428571429	662.983638671834	1002.449071730465	559.429145289872	850.041877550540	1419.094257365850	355.340629981983	968.999688410918	1340.499490854585	499.995641994262	921.079548915349	1422.619490797682	683.270583455518	870.656017097196	1481.337007300532	510.749946356355	903.799749663000	922.303942842310	639.573161457361	853.254050045684	958.986999804849	371.102400008903	933.986065150581	721.868723567416	591.476531755531	859.317985162725	609.735546734097	652.158908715734	923.722042930091	560.696887050487	558.768453884006	921.423780408244	465.826124929806	561.178982242880	937.254500989617	775.820471087322	400.306806433830	890.647294579492	650.365043098107	319.390721504586	987.835861154792	588.662559695244	386.316879492558	1013.821468705668	521.511191089166	380.724215618490	991.366328696816	448.718083012000	364.376383634131	919.062745370646	329.237875801841	297.501183732733	990.866228982037	218.242406458124	352.533218197037	871.964848900674	382.339722547226	573.042018294469	786.840109021942	292.825582916893	640.212790068047	801.435067518260	194.047470568606	574.100971402427	637.815876675605	44.477446395309	553.691259619223	810.470418254270	95.407641166146	585.568399250327	721.735583137507	37.540029304512	626.914806464545	929.557813478592	41.308314008853	614.968230467689	889.043051634919	42.901785739671	370.848529291453	969.923689229021	48.462224262231	297.991756217812	1042.783540448565	121.114742584098	329.631707955743	1176.290534463045	86.751651338921	312.170123398368	728.212343671358	1084.638073565067	251.731570575671	731.723721662577	825.048055376843	234.697326058641	988.186825126541	1082.503699903482	790.531673507343	1219.816929202277	1101.309564627991	699.658055808306	
19	35.098571428571	663.952826507071	1003.976369231147	557.900315325932	849.388164846132	1420.536152835011	353.489186752798	969.394143612686	1341.881578833140	497.255362462669	922.759469429103	1424.164936347838	680.653690288372	870.807353184409	1482.603024227072	508.797181882674	904.491182667221	923.182530165758	637.905454898961	854.080299886710	959.964990077415	369.388281061030	931.524303137396	721.524223569102	590.298225654039	855.420956952834	610.485737685948	651.699945587742	918.806256739367	560.327437438809	558.438286591149	915.252716184280	465.908297436253	561.143059821206	936.234286400070	774.806957931987	397.881835447888	887.095623996516	649.792043880639	317.398189823146	983.845670817527	587.269313493887	383.891263981563	1009.085809623603	521.287241050364	379.247210639715	988.635578878579	448.826893151453	363.065789095607	919.911946325668	327.214721001259	295.939871451851	994.076576661955	218.327142730274	352.143444462413	865.984011170235	382.722072786552	573.089080827242	781.018903162147	293.090005177051	640.410633837375	795.835782958069	194.344789604612	574.209115246355	632.532627408312	44.399213236163	553.698850310020	805.305492974717	95.498002504710	585.702673027081	716.464071263076	37.485744484585	626.905344389413	924.292663593865	41.390359998912	614.918256905131	896.110015633054	41.191034351919	369.783081885659	978.036050948642	47.543272029444	298.032257877930	1049.115455221154	121.681629849043	330.312424021202	1183.623531430652	89.492615620072	315.097895916773	719.801817888387	1089.210886944202	251.340463861263	721.110030508983	829.343105967727	235.703737849560	1000.261654274864	1086.958348213082	785.674820256126	1227.161459578692	1120.604447028981	689.117970457449	
20	35.115714285714	665.069567637418	1005.053211625288	556.023308460226	848.988787301715	1421.564170833984	351.335245697301	969.875488185708	1342.926840546057	494.392175002566	924.209255333550	1425.373487047525	677.818805574419	870.984000983255	1483.503936192946	506.560081503676	905.336396302171	923.767270069269	636.087920686633	855.150249580789	960.444966835048	367.514104126870	929.495586307479	721.036709597923	589.027453419825	852.014934432795	611.024862537499	651.118299483934	914.466212830696	559.814680679638	558.035204799352	909.708084012967	465.774215163083	561.025950067895	935.460219914341	773.285515839892	395.172384672040	883.563731643296	648.621210965163	315.515332347566	980.106926021202	585.458619888509	381.435547030089	1004.357111499958	520.300086316408	377.733701143526	985.499590166629	448.163905148663	361.725416869396	919.254363231296	324.983400630101	294.941434206045	995.305611069588	217.831569764373	351.970130822254	860.529782618896	382.892342473911	573.022880979273	775.606846282160	293.282498111760	640.564408813564	790.439455605609	194.530419384110	574.283650106638	627.263266384683	44.350702752842	553.717012629796	800.131262286791	95.555541928700	585.815744858208	711.207295907102	37.435724975143	626.906326699341	919.046509386726	41.426918078323	614.872917823720	900.133836030394	39.834496117002	369.517530777752	982.703862635726	46.528338719102	298.457452266100	1052.662632557809	121.474472477163	331.104337852050	1187.744306985429	90.485863036984	317.373476221141	712.398904096565	1093.180238408419	251.025975118239	711.604731642720	833.006683330887	236.997749165768	1011.961937230016	1091.496148974703	780.747008218474	1233.380514425143	1139.385794584556	679.103229068719	
21	35.132857142857	666.311503077464	1005.638381795498	553.843883421375	848.832690530835	1422.119782324776	348.872394566329	970.444272823527	1343.583197265380	491.397352118777	925.440651706553	1426.188435561543	674.776248984207	871.190755306889	1483.995101417754	504.030510525900	906.340662856554	924.019444151779	634.112594858612	856.408744014627	960.399110058450	365.485467740299	927.997583438578	720.382404309786	587.657607497392	849.231923602403	611.299561155175	650.380690529655	910.856018642054	559.131741815671	557.514469248483	904.966087019038	465.372250761174	560.776446184964	934.927046140141	771.308558929732	392.239460508351	880.159348638230	646.907911903838	313.757164232358	976.739181829186	583.313108128725	378.981099817402	999.823963786954	518.647779350402	376.184002796540	982.174739752677	446.799089127683	360.360777170723	917.381745539679	322.527603313805	294.412284024391	994.875047631571	216.720467886065	351.954099875485	855.739596654441	382.807101416308	572.804618681233	770.714100491392	293.400470366088	640.647393082302	785.308218462975	194.591911915709	574.311079477262	622.019544201170	44.366667838998	553.753888670538	794.967376211621	95.588893360034	585.916299499029	705.977321915592	37.406806271955	626.923208264370	913.827574424251	41.401678090160	614.838332258831	901.413583801818	38.753841978953	369.901472353573	984.284934691746	45.315096407710	299.156177607325	1053.805939426202	120.391581375121	331.963123300759	1189.073715383972	89.581510943768	319.032141916653	706.093693906599	1096.394151442069	250.726039243915	703.206481015297	835.912258865472	238.506831308857	1023.179755279678	1095.958398586864	775.755488952526	1238.552646925046	1157.331779295692	669.657863867225	
22	35.150000000000	667.646786746118	1005.746338618725	551.411543330309	848.908382209566	1422.192143448392	346.105792806576	971.106754294889	1343.836029605767	488.261343671878	926.494961405501	1426.593468313086	671.538239479648	871.444090779961	1484.075344139965	501.209666750187	907.494920822391	923.932625621279	631.968575274555	857.789734462037	959.860416670806	363.304344955762	927.080583119256	719.558218492759	586.175161838130	847.148405622691	611.286065559448	649.454209658206	908.067104827389	558.271514010166	556.831424786070	901.134204046085	464.680049490467	560.347530817859	934.628883776012	768.986463129372	389.162463801122	877.023522780291	644.777605145889	312.113598740746	973.858324700983	580.955969612571	376.561846788787	995.682476443738	516.491639068918	374.603211711988	978.903084795404	444.874070008939	358.979958128681	914.690256553835	319.902884182774	294.205361701633	993.190131799327	215.053734993364	352.024630394014	851.693738118418	382.451630461264	572.402856961961	766.407006742098	293.457070644903	640.635520497676	780.484071023057	194.536289431323	574.281404590337	616.812176145438	44.487887851429	553.818838778428	789.837067677259	95.612425627712	586.016505815026	700.785489966139	37.420416337486	626.962325932639	908.642424918143	41.303175295703	614.819277035682	900.381774701293	37.921846659609	370.722340386321	983.304137625553	43.886106159187	299.998845565995	1053.033098686351	118.457990510702	332.847541106435	1188.153801766223	86.833833426173	320.189730434892	700.948777541314	1098.758536692465	250.372044681208	695.928691508013	837.988426936805	240.148552635663	1033.808304253445	1100.202550931372	770.709607903117	1242.786371927207	1174.148648578037	660.810376104517	
